<?xml version="1.0" encoding="UTF-8"?>
<svg id="Calque_2" data-name="Calque 2" xmlns="http://www.w3.org/2000/svg" xmlns:xlink="http://www.w3.org/1999/xlink" viewBox="0 0 100 100">
  <defs>
    <style>
      .cls-1 {
        fill: url(#Dégradé_sans_nom_57);
      }

      .cls-2 {
        fill: #c8a2da;
      }

      .cls-3 {
        fill: #ffd084;
      }
    </style>
    <radialGradient id="Dégradé_sans_nom_57" data-name="Dégradé sans nom 57" cx="50" cy="50" fx="50" fy="50" r="47.61" gradientTransform="translate(-2.51 -2.51) scale(1.05)" gradientUnits="userSpaceOnUse">
      <stop offset="0" stop-color="#fff"/>
      <stop offset=".33" stop-color="#fffcf9"/>
      <stop offset=".77" stop-color="#fff6e8"/>
      <stop offset="1" stop-color="#fff2dd"/>
    </radialGradient>
  </defs>
  <g id="Calque_1-2" data-name="Calque 1">
    <g>
      <rect class="cls-1" width="100" height="100" rx="10" ry="10"/>
      <g>
        <polygon class="cls-3" points="44.49 36.18 41.57 36.18 38.65 36.18 38.65 39.1 35.73 39.1 35.73 42.02 35.73 44.94 32.81 44.94 32.81 47.86 32.81 50.78 29.89 50.78 26.97 50.78 26.97 47.86 26.97 44.94 24.05 44.94 24.05 42.02 24.05 39.1 21.12 39.1 21.12 36.18 18.2 36.18 15.28 36.18 12.36 36.18 9.44 36.18 9.44 39.1 9.44 42.02 9.44 44.94 9.44 47.86 9.44 50.78 9.44 53.71 9.44 56.63 9.44 59.55 9.44 62.47 9.44 65.39 9.44 68.31 9.44 71.23 9.44 74.15 9.44 77.07 12.36 77.07 15.28 77.07 18.2 77.07 18.2 74.15 18.2 71.23 18.2 68.31 18.2 65.39 18.2 62.47 18.2 59.55 18.2 56.63 18.2 53.71 18.2 50.78 21.12 50.78 21.12 53.71 21.12 56.63 24.05 56.63 24.05 59.55 24.05 62.47 26.97 62.47 26.97 65.39 26.91 65.39 26.91 68.31 29.83 68.31 32.76 68.31 32.76 65.39 32.81 65.39 32.81 62.47 35.73 62.47 35.73 59.55 35.73 56.63 38.65 56.63 38.65 53.71 38.65 50.78 41.57 50.78 41.57 53.71 41.57 56.63 41.57 59.55 41.57 62.47 41.57 65.39 41.57 68.31 41.57 71.23 41.57 74.15 41.57 77.07 44.49 77.07 47.42 77.07 50.33 77.07 50.33 74.15 50.33 71.23 50.33 68.31 50.33 65.39 50.33 62.47 50.33 59.55 50.33 56.63 50.33 53.71 50.33 50.78 50.33 47.86 50.33 44.94 50.33 42.02 50.33 39.1 50.33 36.18 47.42 36.18 44.49 36.18"/>
        <g>
          <polygon class="cls-3" points="87.64 44.94 87.64 42.02 87.64 39.1 84.72 39.1 81.8 39.1 81.8 36.18 78.88 36.18 75.96 36.18 73.03 36.18 70.12 36.18 67.19 36.18 64.27 36.18 64.27 39.1 61.35 39.1 58.43 39.1 58.43 42.02 58.43 44.94 55.51 44.94 55.51 47.86 55.51 50.78 55.51 53.71 55.51 56.63 55.51 59.55 55.51 62.47 55.51 65.39 55.51 68.31 58.43 68.31 58.43 71.23 58.43 74.15 61.35 74.15 64.27 74.15 64.27 77.07 67.19 77.07 70.12 77.07 73.03 77.07 75.96 77.07 78.88 77.07 81.8 77.07 81.8 74.15 84.72 74.15 87.64 74.15 87.64 71.23 87.64 68.31 90.56 68.31 90.56 65.39 90.56 62.47 87.64 62.47 84.72 62.47 81.8 62.47 78.88 62.47 78.88 65.39 78.88 68.31 78.88 71.23 75.96 71.23 73.03 71.23 70.12 71.23 67.19 71.23 67.19 68.31 67.19 65.39 67.19 62.47 67.19 59.55 67.19 56.63 67.19 53.71 67.19 50.78 67.19 47.86 67.19 44.94 67.19 42.02 70.12 42.02 73.03 42.02 75.96 42.02 78.88 42.02 78.88 44.94 78.88 47.86 78.88 50.78 81.8 50.78 84.72 50.78 87.64 50.78 90.56 50.78 90.56 47.86 90.56 44.94 87.64 44.94"/>
          <g>
            <polygon class="cls-2" points="59.28 22.93 58.69 22.93 58.1 22.93 58.1 23.52 58.1 24.11 58.1 24.7 58.1 25.29 58.1 25.88 58.1 26.46 58.1 27.05 58.1 27.64 58.1 28.23 58.1 28.82 58.1 29.41 58.1 30 57.51 30 56.92 30 56.33 30 55.74 30 55.74 29.41 55.74 28.82 55.74 28.23 55.74 27.64 55.74 27.05 55.74 26.46 55.74 25.88 55.74 25.29 55.74 24.7 55.74 24.11 55.74 23.52 55.74 22.93 55.15 22.93 54.56 22.93 53.97 22.93 53.38 22.93 53.38 23.52 53.38 24.11 53.38 24.7 53.38 25.29 53.38 25.88 53.38 26.46 53.38 27.05 53.38 27.64 53.38 28.23 53.38 28.82 53.38 29.41 53.97 29.41 53.97 30 53.97 30.59 54.56 30.59 55.15 30.59 55.15 31.18 55.74 31.18 56.33 31.18 56.92 31.18 57.51 31.18 58.1 31.18 58.69 31.18 58.69 30.59 59.28 30.59 59.87 30.59 59.87 30 59.87 29.41 60.46 29.41 60.46 28.82 60.46 28.23 60.46 27.64 60.46 27.05 60.46 26.46 60.46 25.88 60.46 25.29 60.46 24.7 60.46 24.11 60.46 23.52 60.46 22.93 59.87 22.93 59.28 22.93"/>
            <polygon class="cls-2" points="66.36 30 65.78 30 65.19 30 64.6 30 64.01 30 64.01 29.41 64.01 28.82 64.01 28.23 64.01 27.64 64.01 27.05 64.01 26.46 64.01 25.88 64.01 25.29 64.01 24.7 64.01 24.11 64.01 23.52 64.01 22.93 63.42 22.93 62.83 22.93 62.24 22.93 61.65 22.93 61.65 23.52 61.65 24.11 61.65 24.7 61.65 25.29 61.65 25.88 61.65 26.46 61.65 27.05 61.65 27.64 61.65 28.23 61.65 28.82 61.65 29.41 61.65 30 61.65 30.59 61.65 31.18 62.24 31.18 62.83 31.18 63.42 31.18 64.01 31.18 64.6 31.18 65.19 31.18 65.78 31.18 66.36 31.18 66.96 31.18 67.54 31.18 67.54 30.59 67.54 30 66.96 30 66.36 30"/>
            <polygon class="cls-2" points="72.86 22.93 72.27 22.93 71.68 22.93 71.09 22.93 70.5 22.93 69.91 22.93 69.32 22.93 68.73 22.93 68.14 22.93 67.55 22.93 66.96 22.93 66.96 23.52 66.96 24.11 67.55 24.11 68.14 24.11 68.73 24.11 69.32 24.11 69.32 24.7 69.32 25.29 69.32 25.88 69.32 26.46 69.32 27.05 69.32 27.64 69.32 28.23 69.32 28.82 69.32 29.41 69.32 30 69.32 30.59 69.32 31.18 69.91 31.18 70.5 31.18 71.09 31.18 71.68 31.18 71.68 30.59 71.68 30 71.68 29.41 71.68 28.82 71.68 28.23 71.68 27.64 71.68 27.05 71.68 26.46 71.68 25.88 71.68 25.29 71.68 24.7 71.68 24.11 72.27 24.11 72.86 24.11 73.45 24.11 74.04 24.11 74.04 23.52 74.04 22.93 73.45 22.93 72.86 22.93"/>
            <path class="cls-2" d="M81.71,23.52h-1.18v-.59h-5.31v8.26h2.36v-3.54h.59v.59h.59v1.18h.59v.59h.59v1.18h2.36v-1.18h-.59v-1.18h-.59v-.59h-.59v-.59h-.59v-.59h1.77v-.59h.59v-2.36h-.59v-.59ZM79.35,26.46h-1.77v-2.36h1.77v.59h.59v1.18h-.59v.59Z"/>
            <path class="cls-2" d="M89.97,27.64v-1.77h-.59v-1.18h-.59v-1.18h-.59v-.59h-2.36v.59h-.59v1.18h-.59v1.18h-.59v1.77h-.59v3.54h2.36v-2.36h2.36v2.36h2.36v-3.54h-.59ZM85.84,27.05v-.59h.59v-1.77h1.18v1.77h.59v1.18h-2.36v-.59Z"/>
          </g>
          <g>
            <polygon class="cls-2" points="15.93 23.52 15.34 23.52 14.75 23.52 14.75 22.93 14.16 22.93 13.57 22.93 12.98 22.93 12.39 22.93 11.8 22.93 11.21 22.93 11.21 23.52 10.62 23.52 10.03 23.52 10.03 24.11 9.44 24.11 9.44 24.7 9.44 25.29 9.44 25.88 9.44 26.46 10.03 26.46 10.03 27.05 10.62 27.05 10.62 27.64 11.21 27.64 11.8 27.64 12.39 27.64 12.39 28.23 12.98 28.23 13.57 28.23 14.16 28.23 14.16 28.82 14.16 29.41 14.16 30 13.57 30 12.98 30 12.39 30 11.8 30 11.8 29.41 11.8 28.82 11.21 28.82 10.62 28.82 10.03 28.82 9.44 28.82 9.44 29.41 9.44 30 10.03 30 10.03 30.59 10.62 30.59 11.21 30.59 11.21 31.18 11.8 31.18 12.39 31.18 12.98 31.18 13.57 31.18 14.16 31.18 14.75 31.18 14.75 30.59 15.34 30.59 15.93 30.59 15.93 30 16.52 30 16.52 29.41 16.52 28.82 16.52 28.23 16.52 27.64 15.93 27.64 15.93 27.05 15.34 27.05 15.34 26.46 14.75 26.46 14.16 26.46 13.57 26.46 13.57 25.88 12.98 25.88 12.39 25.88 11.8 25.88 11.8 25.29 11.8 24.7 11.8 24.11 12.39 24.11 12.98 24.11 13.57 24.11 14.16 24.11 14.16 24.7 14.16 25.29 14.75 25.29 15.34 25.29 15.93 25.29 16.52 25.29 16.52 24.7 16.52 24.11 15.93 24.11 15.93 23.52"/>
            <polygon class="cls-2" points="22.42 31.18 23.01 31.18 23.01 30.59 23.6 30.59 24.19 30.59 24.19 30 24.19 29.41 24.78 29.41 24.78 28.82 24.78 28.23 24.78 27.64 24.78 27.05 24.78 26.46 24.78 25.88 24.78 25.29 24.78 24.7 24.78 24.11 24.78 23.52 24.78 22.93 24.19 22.93 23.6 22.93 23.01 22.93 22.42 22.93 22.42 23.52 22.42 24.11 22.42 24.7 22.42 25.29 22.42 25.88 22.42 26.46 22.42 27.05 22.42 27.64 22.42 28.23 22.42 28.82 22.42 29.41 22.42 30 21.83 30 21.24 30 20.65 30 20.06 30 20.06 29.41 20.06 28.82 20.06 28.23 20.06 27.64 20.06 27.05 20.06 26.46 20.06 25.88 20.06 25.29 20.06 24.7 20.06 24.11 20.06 23.52 20.06 22.93 19.47 22.93 18.88 22.93 18.29 22.93 17.7 22.93 17.7 23.52 17.7 24.11 17.7 24.7 17.7 25.29 17.7 25.88 17.7 26.46 17.7 27.05 17.7 27.64 17.7 28.23 17.7 28.82 17.7 29.41 18.29 29.41 18.29 30 18.29 30.59 18.88 30.59 19.47 30.59 19.47 31.18 20.06 31.18 20.65 31.18 21.24 31.18 21.83 31.18 22.42 31.18"/>
            <path class="cls-2" d="M30.68,27.64h.59v-.59h1.18v-.59h.59v-2.36h-.59v-.59h-1.18v-.59h-5.31v8.26h2.36v-3.54h2.36ZM28.32,25.88v-1.77h1.77v.59h.59v1.18h-.59v.59h-1.77v-.59Z"/>
            <polygon class="cls-2" points="35.41 31.18 36 31.18 36.59 31.18 37.18 31.18 37.77 31.18 38.36 31.18 38.95 31.18 39.54 31.18 40.12 31.18 40.12 30.59 40.12 30 39.54 30 38.95 30 38.36 30 37.77 30 37.18 30 36.59 30 36.59 29.41 36.59 28.82 36.59 28.23 36.59 27.64 37.18 27.64 37.77 27.64 38.36 27.64 38.95 27.64 39.54 27.64 40.12 27.64 40.12 27.05 40.12 26.46 39.54 26.46 38.95 26.46 38.36 26.46 37.77 26.46 37.18 26.46 36.59 26.46 36.59 25.88 36.59 25.29 36.59 24.7 36.59 24.11 37.18 24.11 37.77 24.11 38.36 24.11 38.95 24.11 39.54 24.11 40.12 24.11 40.12 23.52 40.12 22.93 39.54 22.93 38.95 22.93 38.36 22.93 37.77 22.93 37.18 22.93 36.59 22.93 36 22.93 35.41 22.93 34.82 22.93 34.23 22.93 34.23 23.52 34.23 24.11 34.23 24.7 34.23 25.29 34.23 25.88 34.23 26.46 34.23 27.05 34.23 27.64 34.23 28.23 34.23 28.82 34.23 29.41 34.23 30 34.23 30.59 34.23 31.18 34.82 31.18 35.41 31.18"/>
            <path class="cls-2" d="M43.67,30.59v-2.95h.59v.59h.59v1.18h.59v.59h.59v1.18h2.36v-1.18h-.59v-1.18h-.59v-.59h-.59v-.59h-.59v-.59h1.77v-.59h.59v-2.36h-.59v-.59h-1.18v-.59h-5.31v8.26h2.36v-.59ZM46.03,24.7v1.18h-.59v.59h-1.77v-2.36h1.77v.59h.59Z"/>
          </g>
        </g>
      </g>
    </g>
  </g>
</svg>