<svg width="20" height="20" viewBox="0 0 20 20" fill="none" xmlns="http://www.w3.org/2000/svg">
<path d="M1.66667 5.83325H6.66667V2.49992H8.33333V0.833252H11.6667V2.49992H13.3333V5.83325H18.3333V7.49992H20V10.8333H18.3333V12.4999H16.6667V14.1666H18.3333V17.4999H16.6667V19.1666H13.3333V17.4999H11.6667V15.8333H8.33333V17.4999H6.66667V19.1666H3.33333V17.4999H1.66667V14.1666H3.33333V12.4999H1.66667V10.8333H0V7.49992H1.66667V5.83325Z" fill="#C47E1E"/>
<path d="M8.33333 2.49992H11.6667V5.83325H13.3333V7.49992H18.3333V10.8333H15V14.1666H16.6667V17.4999H13.3333V15.8333H11.6667V14.1666H8.33333V15.8333H6.66667V17.4999H3.33333V14.1666H5V10.8333H1.66667V7.49992H6.66667V5.83325H8.33333V2.49992Z" fill="#FFE97A"/>
</svg>
